<svg xmlns="http://www.w3.org/2000/svg" version="1.1" xmlns:xlink="http://www.w3.org/1999/xlink" xmlns:svgjs="http://svgjs.dev/svgjs" width="1500" height="253" viewBox="0 0 1500 253"><g transform="matrix(1,0,0,1,1.478602795158281,2.2231037435267353)"><svg viewBox="0 0 396 67" data-background-color="#ffffff" preserveAspectRatio="xMidYMid meet" height="253" width="1500" xmlns="http://www.w3.org/2000/svg" xmlns:xlink="http://www.w3.org/1999/xlink"><g id="tight-bounds" transform="matrix(1,0,0,1,0.2400000000000091,0.24979560534444545)"><svg viewBox="0 0 395.52 66.50040878931108" height="66.50040878931108" width="395.52"><g><svg viewBox="0 0 395.52 66.50040878931108" height="66.50040878931108" width="395.52"><g><svg viewBox="0 0 512.3653655454029 86.14610198789973" height="66.50040878931108" width="395.52"><g transform="matrix(1,0,0,1,116.84536554540297,0)"><svg viewBox="0 0 395.52 86.14610198789973" height="86.14610198789973" width="395.52"><g id="textblocktransform"><svg viewBox="0 0 395.52 86.14610198789973" height="86.14610198789973" width="395.52" id="textblock"><g><svg viewBox="0 0 395.52 86.14610198789973" height="86.14610198789973" width="395.52"><g transform="matrix(1,0,0,1,0,0)"><svg width="395.52" viewBox="-1.1 -32.4 173.54 37.8" height="86.14610198789973" data-palette-color="#4c5aec"><path d="M15.85-32.25L12.7-10.65 12.3-6.1Q11.9-3.15 10.68-1.1 9.45 0.95 7.05 2.5 4.65 4.05 0.65 5.4L0.65 5.4-1.1 1.25-1.05 0.6Q2-0.9 3.33-2.4 4.65-3.9 4.95-6.3L4.95-6.3 5.4-9.85 7.2-26.5 2.45-26.4 2-26.95 3-32.25 15.85-32.25ZM32.5-25.8Q37.85-25.8 40.72-23 43.6-20.2 43.6-14.55L43.6-14.55Q43.6-10.2 41.9-6.78 40.2-3.35 36.95-1.43 33.7 0.5 29.25 0.5L29.25 0.5Q23.9 0.5 21-2.35 18.1-5.2 18.1-10.95L18.1-10.95Q18.1-15.3 19.8-18.68 21.5-22.05 24.75-23.93 28-25.8 32.5-25.8L32.5-25.8ZM31.6-19.95Q28.65-19.95 27.22-18.03 25.8-16.1 25.8-11.1L25.8-11.1Q25.8-8.75 26.2-7.45 26.6-6.15 27.52-5.63 28.45-5.1 30.15-5.1L30.15-5.1Q33.05-5.1 34.47-7.05 35.9-9 35.9-13.95L35.9-13.95Q35.9-16.25 35.5-17.55 35.1-18.85 34.2-19.4 33.3-19.95 31.6-19.95L31.6-19.95ZM64.15-13.1Q66.3-12.2 67.37-10.85 68.45-9.5 68.45-7.25L68.45-7.25Q68.45-3.55 65.15-1.65 61.85 0.25 55.45 0.25L55.45 0.25Q51.15 0.25 46.15 0L46.15 0 47.45-7.45 49.3-25.4 60.35-25.4Q64.34-25.4 66.62-23.9 68.9-22.4 68.9-19.55L68.9-19.55Q68.9-17.4 67.67-15.75 66.45-14.1 64.15-13.1L64.15-13.1ZM58.65-14.95Q59.95-15.35 60.55-16.13 61.15-16.9 61.15-18.25L61.15-18.25Q61.15-19.45 60.4-19.88 59.65-20.3 57.8-20.3L57.8-20.3 55.8-20.3 55.1-15.1 58.65-14.95ZM56.45-4.8Q58.5-4.8 59.7-5.6 60.9-6.4 60.9-7.9L60.9-7.9Q60.9-8.75 60.42-9.3 59.95-9.85 58.9-10.2L58.9-10.2 54.35-10.1 54.1-8.2 53.8-4.95Q55.4-4.8 56.45-4.8L56.45-4.8ZM104.34-32.4L101.09-10.15 100.19 0 91.59 0 82.79-20.2 82.29-20.2 81.14-11.3 80.04 0 72.79 0 74.39-9.5 76.79-32.25 85.34-32.25 94.19-12.05 94.69-12.05 96.94-31.95 104.34-32.4ZM120.64-25.8Q125.99-25.8 128.87-23 131.74-20.2 131.74-14.55L131.74-14.55Q131.74-10.2 130.04-6.78 128.34-3.35 125.09-1.43 121.84 0.5 117.39 0.5L117.39 0.5Q112.04 0.5 109.14-2.35 106.24-5.2 106.24-10.95L106.24-10.95Q106.24-15.3 107.94-18.68 109.64-22.05 112.89-23.93 116.14-25.8 120.64-25.8L120.64-25.8ZM119.74-19.95Q116.79-19.95 115.37-18.03 113.94-16.1 113.94-11.1L113.94-11.1Q113.94-8.75 114.34-7.45 114.74-6.15 115.67-5.63 116.59-5.1 118.29-5.1L118.29-5.1Q121.19-5.1 122.62-7.05 124.04-9 124.04-13.95L124.04-13.95Q124.04-16.25 123.64-17.55 123.24-18.85 122.34-19.4 121.44-19.95 119.74-19.95L119.74-19.95ZM172.44-25.4L161.24 0 153.34 0 151.54-9.65 151.14-9.65 147.14 0 139.24 0 135.79-25.4 142.99-25.4 142.94-21.55 144.39-7.55 144.84-7.55 149.79-19.45 149.04-25.4 156.59-25.4 156.59-20.8 158.34-7.55 158.79-7.55 164.34-21.15 165.59-25.4 172.44-25.4Z" opacity="1" transform="matrix(1,0,0,1,0,0)" fill="#4c5aec" class="wordmark-text-0" data-fill-palette-color="primary" id="text-0"></path></svg></g></svg></g></svg></g></svg></g><g transform="matrix(1,0,0,1,0,0.21364233292999302)"><svg viewBox="0 0 96.50833837250755 85.71881732203974" height="85.71881732203974" width="96.50833837250755"><g><svg xmlns="http://www.w3.org/2000/svg" xmlns:xlink="http://www.w3.org/1999/xlink" version="1.1" x="0" y="0" viewBox="4.602 9.677 90.797 80.64599999999999" enable-background="new 0 0 100 100" xml:space="preserve" height="85.71881732203974" width="96.50833837250755" class="icon-icon-0" data-fill-palette-color="accent" id="icon-0"><g fill="#404bc2" data-fill-palette-color="accent"><path d="M95.35 27.217A3.98 3.98 0 0 0 91.373 23.241H64.445V15.549A5.88 5.88 0 0 0 58.572 9.677H41.428A5.88 5.88 0 0 0 35.555 15.549V23.241H8.629A3.98 3.98 0 0 0 4.652 27.215L4.602 50.884C4.602 51.268 4.821 51.618 5.166 51.786A75 75 0 0 0 8.965 53.493V86.347A3.98 3.98 0 0 0 12.94 90.323H87.061A3.98 3.98 0 0 0 91.036 86.347V53.017A69 69 0 0 0 94.865 51.154C95.194 50.981 95.399 50.639 95.399 50.267zM37.555 15.549A3.877 3.877 0 0 1 41.428 11.677H58.573C60.673 11.677 62.446 13.45 62.446 15.549V23.241H37.555zM89.035 86.348C89.035 87.418 88.131 88.324 87.06 88.324H12.939C11.869 88.324 10.964 87.419 10.964 86.348V54.273C20.102 57.815 30.411 59.916 41.743 60.479L41.794 60.481C41.867 60.481 41.934 60.456 42.003 60.44V64.205A2.65 2.65 0 0 0 44.651 66.854H55.346A2.65 2.65 0 0 0 57.994 64.205V60.457C69.595 59.843 79.99 57.611 89.033 53.853V86.348zM44.004 64.205V56.87A0.65 0.65 0 0 1 44.652 56.219H55.347C55.699 56.219 55.995 56.517 55.995 56.87V64.205A0.657 0.657 0 0 1 55.347 64.854H44.652A0.65 0.65 0 0 1 44.004 64.205M57.996 58.453V56.87A2.65 2.65 0 0 0 55.348 54.219H44.652A2.65 2.65 0 0 0 42.004 56.87V58.523C41.949 58.511 41.9 58.485 41.844 58.482 28.571 57.822 16.719 55.055 6.604 50.256L6.653 27.216C6.653 26.126 7.54 25.24 8.63 25.24H91.374C92.464 25.24 93.351 26.126 93.351 27.218L93.398 49.663C83.492 54.77 71.585 57.722 57.996 58.453" fill="#404bc2" data-fill-palette-color="accent"></path></g></svg></g></svg></g></svg></g></svg></g><defs></defs></svg><rect width="395.52" height="66.50040878931108" fill="none" stroke="none" visibility="hidden"></rect></g></svg></g></svg>